<svg width="24" height="24" viewBox="0 0 24 24" fill="none" xmlns="http://www.w3.org/2000/svg">
<path d="M18.25 6.75C18.25 10.2004 15.4504 13 12 13C8.54958 13 5.75 10.2004 5.75 6.75C5.75 3.29958 8.54958 0.5 12 0.5C15.4504 0.5 18.25 3.29958 18.25 6.75ZM12 16.25C13.2544 16.25 14.4478 15.9786 15.5249 15.5H18C21.0379 15.5 23.5 17.9621 23.5 21V21.75C23.5 22.716 22.716 23.5 21.75 23.5H2.25C1.28395 23.5 0.5 22.716 0.5 21.75V21C0.5 17.9621 2.96208 15.5 6 15.5H8.47552C9.556 15.9783 10.7449 16.25 12 16.25Z" stroke="#C55A81"/>
</svg>
